<?xml version="1.0" standalone="no"?>
<!DOCTYPE svg PUBLIC "-//W3C//DTD SVG 20010904//EN"
 "http://www.w3.org/TR/2001/REC-SVG-20010904/DTD/svg10.dtd">
<svg version="1.0" xmlns="http://www.w3.org/2000/svg"
 width="100.000000pt" height="100.000000pt" viewBox="0 0 100.000000 100.000000"
 preserveAspectRatio="xMidYMid meet">
<metadata>
Created by potrace 1.11, written by Peter Selinger 2001-2013
</metadata>
<g transform="translate(0.000000,100.000000) scale(0.100000,-0.100000)"
fill="#000000" stroke="none">
<path d="M191 951 c-60 -19 -116 -77 -133 -138 -10 -36 -14 -121 -13 -338 1
-288 1 -291 25 -340 16 -32 41 -61 68 -80 l44 -30 301 -3 c203 -2 316 0 347 8
59 15 105 51 132 103 21 40 22 55 25 332 2 319 -3 365 -54 426 -15 18 -48 41
-73 53 -42 19 -64 20 -335 21 -224 0 -300 -3 -334 -14z"/>
</g>
</svg>
